HIERARCHY
ROOT ui
{
	 OFFSET 0 0 0
	 CHANNELS 3 XPosition YPosition Z Position
	 EndSite
	 {
	 OFFSET 0 -1 0
	 }
}
ROOT li
{
	 OFFSET 0 0 0
	 CHANNELS 3 XPosition YPosition Z Position
	 EndSite
	 {
	 OFFSET 0 -1 0
	 }
}
ROOT ul
{
	 OFFSET 0 0 0
	 CHANNELS 3 XPosition YPosition Z Position
	 EndSite
	 {
	 OFFSET 0 -1 0
	 }
}
ROOT ll
{
	 OFFSET 0 0 0
	 CHANNELS 3 XPosition YPosition Z Position
	 EndSite
	 {
	 OFFSET 0 -1 0
	 }
}
ROOT tt
{
	 OFFSET 0 0 0
	 CHANNELS 3 XPosition YPosition Z Position
	 EndSite
	 {
	 OFFSET 0 -1 0
	 }
}
ROOT tb
{
	 OFFSET 0 0 0
	 CHANNELS 3 XPosition YPosition Z Position
	 EndSite
	 {
	 OFFSET 0 -1 0
	 }
}
ROOT td
{
	 OFFSET 0 0 0
	 CHANNELS 3 XPosition YPosition Z Position
	 EndSite
	 {
	 OFFSET 0 -1 0
	 }
}
ROOT v
{
	 OFFSET 0 0 0
	 CHANNELS 3 XPosition YPosition Z Position
	 EndSite
	 {
	 OFFSET 0 -1 0
	 }
}
ROOT bn
{
	 OFFSET 0 0 0
	 CHANNELS 3 XPosition YPosition Z Position
	 EndSite
	 {
	 OFFSET 0 -1 0
	 }
}
MOTION
Frames: 21
Frame Time: 0.002
0.0028474090099334715	0.003757783889770508	0		0.5313017578125	-2.391951171875	0		-1.089822998046875	-0.12475802612304687	0		-0.7287750244140625	-2.3903896484375	0		1.7173812255859375	-0.4494505004882812	0		3.230796875	-0.425138671875	0		4.38895654296875	-0.1764224548339844	0		5.89462255859375	0.3540237121582031	0		-0.22688467407226562	5.857041015625	0		
-4.802879989147186E-4	1.496420055627823E-4	0		0.5729638671875	-2.3911318359375	0		-1.053120361328125	-0.12583021545410156	0		-0.7141727294921875	-2.394199462890625	0		1.7130406494140624	-0.45309539794921877	0		3.26980029296875	-0.401361328125	0		4.38559912109375	-0.18215611267089843	0		5.89746533203125	0.3631714782714844	0		-0.26105465698242186	5.8528232421875	0		
-7.548829913139343E-4	5.020589828491211E-4	0		0.5196876220703125	-2.385138427734375	0		-1.0863463134765625	-0.12103886413574219	0		-0.712490478515625	-2.391851806640625	0		1.712753173828125	-0.45279153442382813	0		3.225443359375	-0.40655523681640626	0		4.3883935546875	-0.17596566772460936	0		5.89231298828125	0.3724180908203125	0		-0.26116339111328124	5.85318310546875	0		
-0.001022766947746277	8.522419929504394E-4	0		0.5572380981445313	-2.394274658203125	0		-1.08661767578125	-0.12065827941894532	0		-0.7328114013671875	-2.390233154296875	0		1.71247265625	-0.4524893493652344	0		3.23230029296875	-0.39538327026367187	0		4.383220703125	-0.1676768493652344	0		5.9059423828125	0.3634298706054688	0		-0.2593048400878906	5.85051611328125	0		
0.011642996788024901	-0.004961585998535157	0		0.5271405639648438	-2.37556982421875	0		-1.058831787109375	-0.11663003540039063	0		-0.7042249145507813	-2.397226318359375	0		1.716251220703125	-0.44823876953125	0		3.2518173828125	-0.4123721923828125	0		4.38400732421875	-0.163462158203125	0		5.9100048828125	0.38856375122070314	0		-0.20823233032226562	5.864234375	0		
0.0015215890407562255	0.005507290840148926	0		0.5439042358398437	-2.369451416015625	0		-1.059081787109375	-0.11625687408447266	0		-0.7025106201171875	-2.3948876953125	0		1.7119427490234376	-0.4518889465332031	0		3.250984375	-0.37810348510742187	0		4.38985546875	-0.15530889892578126	0		5.91776806640625	0.3886522216796875	0		-0.20931120300292969	5.86559716796875	0		
0.0012873059511184692	0.0058495688438415525	0		0.5156119384765625	-2.3687724609375	0		-1.0752427978515624	-0.10968794250488281	0		-0.6688585205078125	-2.39895263671875	0		1.7116968994140624	-0.45159005737304686	0		3.228541748046875	-0.3935670776367188	0		4.38472998046875	-0.1460160675048828	0		5.91754345703125	0.38884442138671876	0		-0.22452081298828125	5.85613330078125	0		
-0.0010846949815750122	-0.005785542964935303	0		0.5413057861328125	-2.37077197265625	0		-1.0595438232421874	-0.11552322387695313	0		-0.70308544921875	-2.394171630859375	0		1.702326904296875	-0.4621787719726563	0		3.2704326171875	-0.38383349609375	0		4.40441552734375	-0.153033203125	0		5.91245654296875	0.3991024169921875	0		-0.25867385864257814	5.850904296875	0		
-0.0021937620639801026	0.002560744047164917	0		0.5170941162109375	-2.36614892578125	0		-1.122864013671875	-0.12337258911132812	0		-0.6992872314453125	-2.388871826171875	0		1.7021068115234375	-0.4618833923339844	0		3.25729052734375	-0.37741119384765626	0		4.3842919921875	-0.14554904174804686	0		5.92612939453125	0.38912631225585936	0		-0.22271456909179688	5.85379248046875	0		
0.007494885921478272	-0.0062356748580932615	0		0.5298068237304687	-2.36899462890625	0		-1.110939208984375	-0.11317145538330078	0		-0.7684175415039063	-2.37866064453125	0		1.698849365234375	-0.4655534973144531	0		3.265361328125	-0.35525537109375	0		4.398341796875	-0.12549290466308594	0		5.929267578125	0.41528704833984376	0		-0.22179806518554687	5.85311328125	0		
4.734640121459961E-4	0.007173505783081055	0		0.5466472778320313	-2.36289794921875	0		-1.0261590576171875	-0.11589780426025391	0		-0.672898681640625	-2.39853125	0		1.697654296875	-0.46525326538085937	0		3.235120361328125	-0.3586212158203125	0		4.39022998046875	-0.11915984344482422	0		5.94220263671875	0.4243240966796875	0		-0.22186474609375	5.85343994140625	0		
-0.0027516279220581056	0.003526526927947998	0		0.5443893432617187	-2.365568115234375	0		-1.1013177490234376	-0.11361674499511719	0		-0.7319003295898437	-2.380460205078125	0		1.7425426025390625	-0.45953939819335937	0		3.280023193359375	-0.35193685913085937	0		4.39125439453125	-0.10294293975830078	0		5.945921875	0.41547540283203127	0		-0.22094036865234376	5.85274658203125	0		
0.002930670976638794	-0.008241975784301758	0		0.5421556396484375	-2.367246337890625	0		-1.0265040283203124	-0.11523834991455079	0		-0.6674808959960937	-2.409959716796875	0		1.72425634765625	-0.4680364685058594	0		3.221982177734375	-0.3409577331542969	0		4.40126318359375	-0.08884385681152343	0		5.93677734375	0.4167874755859375	0		-0.25507283020019533	5.84748681640625	0		
-0.007112271785736084	0.0011802400350570679	0		0.52004736328125	-2.359681396484375	0		-1.0835830078125	-0.10820309448242188	0		-0.7188154296875	-2.42000537109375	0		1.7161292724609376	-0.46466900634765623	0		3.249917724609375	-0.33307241821289063	0		4.39621826171875	-0.0795614013671875	0		5.93585498046875	0.43499188232421876	0		-0.2541414337158203	5.846775390625	0		
0.006660082817077637	-0.004711063861846923	0		0.5498803100585937	-2.357784912109375	0		-1.073748779296875	-0.10902610015869141	0		-0.6769591064453125	-2.416240478515625	0		1.6759869384765624	-0.4629052734375	0		3.2526982421875	-0.3378788146972656	0		4.39221923828125	-0.06729963684082031	0		5.953697265625	0.4339501037597656	0		-0.2380813751220703	5.855861328125	0		
0.009553266525268554	-0.0014751169681549072	0		0.52273828125	-2.354177001953125	0		-1.0717430419921874	-0.0967608871459961	0		-0.6401834106445312	-2.419424560546875	0		1.709718017578125	-0.4720885009765625	0		3.251992431640625	-0.3026466979980469	0		4.3932763671875	-0.05110959243774414	0		5.95277587890625	0.45114044189453123	0		-0.2040714569091797	5.8607080078125	0		
-0.0026117260456085204	-0.003059091091156006	0		0.5385986328125	-2.351125	0		-1.075935546875	-0.10042984771728515	0		-0.6423861083984375	-2.421125732421875	0		1.6914573974609375	-0.4806216125488281	0		3.222633544921875	-0.31906292724609375	0		4.399236328125	-0.04298995208740235	0		5.95265478515625	0.4523130798339844	0		-0.21826119995117188	5.8501533203125	0		
-0.0076870560646057125	0.00225778603553772	0		0.5094274291992188	-2.35051025390625	0		-1.0720257568359375	-0.09621173095703126	0		-0.6466112060546875	-2.4248115234375	0		1.704208251953125	-0.4885573425292969	0		3.230654296875	-0.3059590454101562	0		4.3982744140625	-0.028788812637329103	0		5.95252197265625	0.4524800109863281	0		-0.2183152618408203	5.85041015625	0		
0.0020566918849945067	-0.006623641014099121	0		0.5451231689453125	-2.36072998046875	0		-1.0552584228515625	-0.10316744995117187	0		-0.7098193969726563	-2.426754638671875	0		1.67305029296875	-0.48894146728515625	0		3.2375341796875	-0.3038488464355469	0		4.40220947265625	-0.02265719985961914	0		5.95628515625	0.4445908203125	0		-0.25144732666015623	5.8450791015625	0		
-0.003934515953063965	0.005690017223358154	0		0.5131395263671875	-2.3450927734375	0		-1.1232969970703126	-0.09404837036132813	0		-0.6689755249023438	-2.425029541015625	0		1.692884521484375	-0.4899814453125	0		3.22278173828125	-0.2724670104980469	0		4.400255859375	-0.0074559998512268065	0		5.95536376953125	0.4617575073242188	0		-0.25151058959960937	5.84532080078125	0		
-0.004084236145019531	0.005923088073730469	0		0.5399293823242187	-2.347211181640625	0		-1.1193973388671874	-0.08985109710693359	0		-0.7101812744140625	-2.426263671875	0		1.66173046875	-0.48937637329101563	0		3.2173095703125	-0.2972129821777344	0		4.39928466796875	0.006727399826049804	0		5.9642197265625	0.46179278564453125	0		-0.2175179901123047	5.850123046875	0		
